CrispyWide Thin-MaxGrade-shadow.ufo
<glyph name="period" format="2">
  <advance width="207"/>
  <unicode hex="002E"/>
  <outline>
    <contour>
      <point x="-27" y="-127" type="line"/>
      <point x="-29" y="-136" type="line"/>
      <point x="-29" y="-152" type="line"/>
      <point x="-5" y="-152" type="line"/>
      <point x="146" y="-1" type="line"/>
      <point x="148" y="7" type="line"/>
      <point x="148" y="24" type="line"/>
      <point x="124" y="24" type="line"/>
    </contour>
    <contour>
      <point x="-25" y="-148" type="line"/>
      <point x="-25" y="-136" type="line"/>
      <point x="-23" y="-129" type="line"/>
      <point x="126" y="20" type="line"/>
      <point x="144" y="20" type="line"/>
      <point x="144" y="7" type="line"/>
      <point x="142" y="1" type="line"/>
      <point x="-7" y="-148" type="line"/>
    </contour>
  </outline>
</glyph>
<glyph name="two" format="2">
  <advance width="3744"/>
  <unicode hex="0032"/>
  <outline>
    <contour>
      <point x="174" y="807" type="line"/>
      <point x="23" y="656" type="line"/>
      <point x="23" y="-152" type="line"/>
      <point x="3587" y="-152" type="line"/>
      <point x="3738" y="-1" type="line"/>
      <point x="3738" y="521" type="line"/>
      <point x="3720" y="521" type="line"/>
      <point x="3569" y="370" type="line"/>
      <point x="3569" y="15" type="line"/>
      <point x="191" y="15" type="line"/>
      <point x="191" y="642" type="line"/>
      <point x="3590" y="642" type="line"/>
      <point x="3741" y="793" type="line"/>
      <point x="3741" y="1602" type="line"/>
      <point x="177" y="1602" type="line"/>
      <point x="26" y="1451" type="line"/>
      <point x="26" y="926" type="line"/>
      <point x="43" y="926" type="line"/>
      <point x="194" y="1077" type="line"/>
      <point x="194" y="1435" type="line"/>
      <point x="3573" y="1435" type="line"/>
      <point x="3573" y="807" type="line"/>
    </contour>
    <contour>
      <point x="187" y="646" type="line"/>
      <point x="187" y="11" type="line"/>
      <point x="3573" y="11" type="line"/>
      <point x="3573" y="368" type="line"/>
      <point x="3722" y="517" type="line"/>
      <point x="3734" y="517" type="line"/>
      <point x="3734" y="1" type="line"/>
      <point x="3585" y="-148" type="line"/>
      <point x="27" y="-148" type="line"/>
      <point x="27" y="654" type="line"/>
      <point x="176" y="803" type="line"/>
      <point x="3577" y="803" type="line"/>
      <point x="3577" y="1439" type="line"/>
      <point x="190" y="1439" type="line"/>
      <point x="190" y="1079" type="line"/>
      <point x="41" y="930" type="line"/>
      <point x="30" y="930" type="line"/>
      <point x="30" y="1449" type="line"/>
      <point x="179" y="1598" type="line"/>
      <point x="3737" y="1598" type="line"/>
      <point x="3737" y="795" type="line"/>
      <point x="3588" y="646" type="line"/>
    </contour>
  </outline>
</glyph>
<glyph name="three" format="2">
  <advance width="3827"/>
  <unicode hex="0033"/>
  <outline>
    <contour>
      <point x="893" y="808" type="line"/>
      <point x="742" y="657" type="line"/>
      <point x="742" y="642" type="line"/>
      <point x="3599" y="642" type="line"/>
      <point x="3599" y="15" type="line"/>
      <point x="191" y="15" type="line"/>
      <point x="191" y="522" type="line"/>
      <point x="174" y="522" type="line"/>
      <point x="23" y="371" type="line"/>
      <point x="23" y="-152" type="line"/>
      <point x="3616" y="-152" type="line"/>
      <point x="3767" y="-1" type="line"/>
      <point x="3767" y="808" type="line"/>
      <point x="3424" y="808" type="line"/>
      <point x="3424" y="1602" type="line"/>
      <point x="251" y="1602" type="line"/>
      <point x="100" y="1451" type="line"/>
      <point x="100" y="923" type="line"/>
      <point x="117" y="923" type="line"/>
      <point x="268" y="1074" type="line"/>
      <point x="268" y="1435" type="line"/>
      <point x="3256" y="1435" type="line"/>
      <point x="3256" y="808" type="line"/>
    </contour>
    <contour>
      <point x="3260" y="804" type="line"/>
      <point x="3260" y="1439" type="line"/>
      <point x="264" y="1439" type="line"/>
      <point x="264" y="1076" type="line"/>
      <point x="115" y="927" type="line"/>
      <point x="104" y="927" type="line"/>
      <point x="104" y="1449" type="line"/>
      <point x="253" y="1598" type="line"/>
      <point x="3420" y="1598" type="line"/>
      <point x="3420" y="804" type="line"/>
      <point x="3763" y="804" type="line"/>
      <point x="3763" y="1" type="line"/>
      <point x="3614" y="-148" type="line"/>
      <point x="27" y="-148" type="line"/>
      <point x="27" y="369" type="line"/>
      <point x="176" y="518" type="line"/>
      <point x="187" y="518" type="line"/>
      <point x="187" y="11" type="line"/>
      <point x="3603" y="11" type="line"/>
      <point x="3603" y="646" type="line"/>
      <point x="746" y="646" type="line"/>
      <point x="746" y="655" type="line"/>
      <point x="895" y="804" type="line"/>
    </contour>
  </outline>
</glyph>
<glyph name="four" format="2">
  <advance width="3751"/>
  <unicode hex="0034"/>
  <outline>
    <contour>
      <point x="3748" y="808" type="line"/>
      <point x="3365" y="808" type="line"/>
      <point x="3365" y="1602" type="line"/>
      <point x="3348" y="1602" type="line"/>
      <point x="3197" y="1451" type="line"/>
      <point x="3197" y="808" type="line"/>
      <point x="191" y="808" type="line"/>
      <point x="191" y="1677" type="line"/>
      <point x="174" y="1677" type="line"/>
      <point x="23" y="1526" type="line"/>
      <point x="23" y="640" type="line"/>
      <point x="3197" y="640" type="line"/>
      <point x="3197" y="-152" type="line"/>
      <point x="3214" y="-152" type="line"/>
      <point x="3365" y="-1" type="line"/>
      <point x="3365" y="640" type="line"/>
      <point x="3597" y="640" type="line"/>
      <point x="3748" y="791" type="line"/>
    </contour>
    <contour>
      <point x="3201" y="644" type="line"/>
      <point x="27" y="644" type="line"/>
      <point x="27" y="1524" type="line"/>
      <point x="176" y="1673" type="line"/>
      <point x="187" y="1673" type="line"/>
      <point x="187" y="804" type="line"/>
      <point x="3201" y="804" type="line"/>
      <point x="3201" y="1449" type="line"/>
      <point x="3350" y="1598" type="line"/>
      <point x="3361" y="1598" type="line"/>
      <point x="3361" y="804" type="line"/>
      <point x="3744" y="804" type="line"/>
      <point x="3744" y="793" type="line"/>
      <point x="3595" y="644" type="line"/>
      <point x="3361" y="644" type="line"/>
      <point x="3361" y="1" type="line"/>
      <point x="3212" y="-148" type="line"/>
      <point x="3201" y="-148" type="line"/>
    </contour>
  </outline>
</glyph>
<glyph name="six" format="2">
  <advance width="3826"/>
  <unicode hex="0036"/>
  <outline>
    <contour>
      <point x="3823" y="-1" type="line"/>
      <point x="3823" y="808" type="line"/>
      <point x="248" y="808" type="line"/>
      <point x="248" y="1203" type="line"/>
      <point x="575" y="1435" type="line"/>
      <point x="3654" y="1435" type="line"/>
      <point x="3654" y="928" type="line"/>
      <point x="3671" y="928" type="line"/>
      <point x="3822" y="1079" type="line"/>
      <point x="3822" y="1602" type="line"/>
      <point x="716" y="1602" type="line"/>
      <point x="231" y="1255" type="line"/>
      <point x="80" y="1104" type="line"/>
      <point x="80" y="-152" type="line"/>
      <point x="3672" y="-152" type="line"/>
    </contour>
    <contour>
      <point x="244" y="1205" type="line"/>
      <point x="244" y="804" type="line"/>
      <point x="3819" y="804" type="line"/>
      <point x="3819" y="1" type="line"/>
      <point x="3670" y="-148" type="line"/>
      <point x="84" y="-148" type="line"/>
      <point x="84" y="1102" type="line"/>
      <point x="233" y="1251" type="line"/>
      <point x="718" y="1598" type="line"/>
      <point x="3818" y="1598" type="line"/>
      <point x="3818" y="1081" type="line"/>
      <point x="3669" y="932" type="line"/>
      <point x="3658" y="932" type="line"/>
      <point x="3658" y="1439" type="line"/>
      <point x="573" y="1439" type="line"/>
    </contour>
    <contour>
      <point x="3659" y="11" type="line"/>
      <point x="3659" y="645" type="line"/>
      <point x="244" y="645" type="line"/>
      <point x="244" y="11" type="line"/>
    </contour>
    <contour>
      <point x="248" y="15" type="line"/>
      <point x="248" y="641" type="line"/>
      <point x="3655" y="641" type="line"/>
      <point x="3655" y="15" type="line"/>
    </contour>
  </outline>
</glyph>
<glyph name="seven" format="2">
  <advance width="3767"/>
  <unicode hex="0037"/>
  <outline>
    <contour>
      <point x="40" y="846" type="line"/>
      <point x="191" y="997" type="line"/>
      <point x="191" y="1434" type="line"/>
      <point x="3593" y="1434" type="line"/>
      <point x="3593" y="1174" type="line"/>
      <point x="1959" y="2" type="line"/>
      <point x="1805" y="-152" type="line"/>
      <point x="1826" y="-152" type="line"/>
      <point x="3613" y="1128" type="line"/>
      <point x="3764" y="1279" type="line"/>
      <point x="3764" y="1602" type="line"/>
      <point x="174" y="1602" type="line"/>
      <point x="23" y="1451" type="line"/>
      <point x="23" y="846" type="line"/>
    </contour>
    <contour>
      <point x="3597" y="1172" type="line"/>
      <point x="3597" y="1438" type="line"/>
      <point x="187" y="1438" type="line"/>
      <point x="187" y="999" type="line"/>
      <point x="38" y="850" type="line"/>
      <point x="27" y="850" type="line"/>
      <point x="27" y="1449" type="line"/>
      <point x="176" y="1598" type="line"/>
      <point x="3760" y="1598" type="line"/>
      <point x="3760" y="1281" type="line"/>
      <point x="3611" y="1132" type="line"/>
      <point x="1824" y="-148" type="line"/>
      <point x="1815" y="-148" type="line"/>
      <point x="1961" y="-2" type="line"/>
    </contour>
  </outline>
</glyph>
<glyph name="nine" format="2">
  <advance width="3826"/>
  <unicode hex="0039"/>
  <outline>
    <contour>
      <point x="3823" y="-1" type="line"/>
      <point x="3823" y="1602" type="line"/>
      <point x="231" y="1602" type="line"/>
      <point x="80" y="1451" type="line"/>
      <point x="80" y="642" type="line"/>
      <point x="3655" y="642" type="line"/>
      <point x="3655" y="15" type="line"/>
      <point x="249" y="15" type="line"/>
      <point x="249" y="402" type="line"/>
      <point x="232" y="402" type="line"/>
      <point x="81" y="251" type="line"/>
      <point x="81" y="-152" type="line"/>
      <point x="3672" y="-152" type="line"/>
    </contour>
    <contour>
      <point x="245" y="11" type="line"/>
      <point x="3659" y="11" type="line"/>
      <point x="3659" y="646" type="line"/>
      <point x="84" y="646" type="line"/>
      <point x="84" y="1449" type="line"/>
      <point x="233" y="1598" type="line"/>
      <point x="3819" y="1598" type="line"/>
      <point x="3819" y="1" type="line"/>
      <point x="3670" y="-148" type="line"/>
      <point x="85" y="-148" type="line"/>
      <point x="85" y="249" type="line"/>
      <point x="234" y="398" type="line"/>
      <point x="245" y="398" type="line"/>
    </contour>
    <contour>
      <point x="3659" y="804" type="line"/>
      <point x="3659" y="1439" type="line"/>
      <point x="244" y="1439" type="line"/>
      <point x="244" y="804" type="line"/>
    </contour>
    <contour>
      <point x="248" y="808" type="line"/>
      <point x="248" y="1435" type="line"/>
      <point x="3655" y="1435" type="line"/>
      <point x="3655" y="808" type="line"/>
    </contour>
  </outline>
</glyph>
<glyph name="B" format="2">
  <advance width="4022"/>
  <unicode hex="0042"/>
  <outline>
    <contour>
      <point x="3603" y="1602" type="line"/>
      <point x="376" y="1602" type="line"/>
      <point x="225" y="1451" type="line"/>
      <point x="225" y="-152" type="line"/>
      <point x="3330" y="-152" type="line"/>
      <point x="3811" y="326" type="line"/>
      <point x="3811" y="326" type="line"/>
      <point x="3811" y="326" type="line"/>
      <point x="3962" y="476" type="line"/>
      <point x="3962" y="808" type="line"/>
      <point x="3603" y="808" type="line"/>
    </contour>
    <contour>
      <point x="3599" y="804" type="line"/>
      <point x="3958" y="804" type="line"/>
      <point x="3958" y="478" type="line"/>
      <point x="3809" y="328" type="line"/>
      <point x="3328" y="-148" type="line"/>
      <point x="229" y="-148" type="line"/>
      <point x="229" y="1449" type="line"/>
      <point x="378" y="1598" type="line"/>
      <point x="3599" y="1598" type="line"/>
    </contour>
    <contour>
      <point x="3439" y="804" type="line"/>
      <point x="3439" y="1439" type="line"/>
      <point x="389" y="1439" type="line"/>
      <point x="389" y="804" type="line"/>
    </contour>
    <contour>
      <point x="393" y="808" type="line"/>
      <point x="393" y="1435" type="line"/>
      <point x="3435" y="1435" type="line"/>
      <point x="3435" y="808" type="line"/>
    </contour>
    <contour>
      <point x="3798" y="333" type="line"/>
      <point x="3798" y="646" type="line"/>
      <point x="389" y="646" type="line"/>
      <point x="389" y="11" type="line"/>
      <point x="3473" y="11" type="line"/>
    </contour>
    <contour>
      <point x="393" y="15" type="line"/>
      <point x="393" y="642" type="line"/>
      <point x="3794" y="642" type="line"/>
      <point x="3794" y="335" type="line"/>
      <point x="3471" y="15" type="line"/>
    </contour>
  </outline>
</glyph>
<glyph name="F" format="2">
  <advance width="3838"/>
  <unicode hex="0046"/>
  <outline>
    <contour>
      <point x="242" y="-152" type="line"/>
      <point x="393" y="-1" type="line"/>
      <point x="393" y="637" type="line"/>
      <point x="3371" y="637" type="line"/>
      <point x="3522" y="788" type="line"/>
      <point x="3522" y="805" type="line"/>
      <point x="393" y="805" type="line"/>
      <point x="393" y="1434" type="line"/>
      <point x="3667" y="1434" type="line"/>
      <point x="3667" y="920" type="line"/>
      <point x="3684" y="920" type="line"/>
      <point x="3835" y="1071" type="line"/>
      <point x="3835" y="1602" type="line"/>
      <point x="376" y="1602" type="line"/>
      <point x="225" y="1451" type="line"/>
      <point x="225" y="-152" type="line"/>
    </contour>
    <contour>
      <point x="3671" y="1438" type="line"/>
      <point x="389" y="1438" type="line"/>
      <point x="389" y="801" type="line"/>
      <point x="3518" y="801" type="line"/>
      <point x="3518" y="790" type="line"/>
      <point x="3369" y="641" type="line"/>
      <point x="389" y="641" type="line"/>
      <point x="389" y="1" type="line"/>
      <point x="240" y="-148" type="line"/>
      <point x="229" y="-148" type="line"/>
      <point x="229" y="1449" type="line"/>
      <point x="378" y="1598" type="line"/>
      <point x="3831" y="1598" type="line"/>
      <point x="3831" y="1073" type="line"/>
      <point x="3682" y="924" type="line"/>
      <point x="3671" y="924" type="line"/>
    </contour>
  </outline>
</glyph>
<glyph name="J" format="2">
  <advance width="3619"/>
  <unicode hex="004A"/>
  <outline>
    <contour>
      <point x="3413" y="-1" type="line"/>
      <point x="3413" y="1602" type="line"/>
      <point x="3396" y="1602" type="line"/>
      <point x="3245" y="1451" type="line"/>
      <point x="3245" y="16" type="line"/>
      <point x="191" y="16" type="line"/>
      <point x="191" y="706" type="line"/>
      <point x="175" y="706" type="line"/>
      <point x="24" y="555" type="line"/>
      <point x="23" y="-152" type="line"/>
      <point x="3262" y="-152" type="line"/>
    </contour>
    <contour>
      <point x="187" y="12" type="line"/>
      <point x="3249" y="12" type="line"/>
      <point x="3249" y="1449" type="line"/>
      <point x="3398" y="1598" type="line"/>
      <point x="3409" y="1598" type="line"/>
      <point x="3409" y="1" type="line"/>
      <point x="3260" y="-148" type="line"/>
      <point x="27" y="-148" type="line"/>
      <point x="28" y="553" type="line"/>
      <point x="177" y="702" type="line"/>
      <point x="187" y="702" type="line"/>
    </contour>
  </outline>
</glyph>
<glyph name="K" format="2">
  <advance width="4025"/>
  <unicode hex="004B"/>
  <outline>
    <contour>
      <point x="393" y="-1" type="line"/>
      <point x="393" y="639" type="line"/>
      <point x="3797" y="639" type="line"/>
      <point x="3797" y="-152" type="line"/>
      <point x="3814" y="-152" type="line"/>
      <point x="3965" y="-1" type="line"/>
      <point x="3965" y="807" type="line"/>
      <point x="3594" y="807" type="line"/>
      <point x="3854" y="1602" type="line"/>
      <point x="3836" y="1602" type="line"/>
      <point x="3685" y="1451" type="line"/>
      <point x="3474" y="807" type="line"/>
      <point x="393" y="807" type="line"/>
      <point x="393" y="1602" type="line"/>
      <point x="376" y="1602" type="line"/>
      <point x="225" y="1451" type="line"/>
      <point x="225" y="-152" type="line"/>
      <point x="242" y="-152" type="line"/>
    </contour>
    <contour>
      <point x="3588" y="803" type="line"/>
      <point x="3961" y="803" type="line"/>
      <point x="3961" y="1" type="line"/>
      <point x="3812" y="-148" type="line"/>
      <point x="3801" y="-148" type="line"/>
      <point x="3801" y="643" type="line"/>
      <point x="389" y="643" type="line"/>
      <point x="389" y="1" type="line"/>
      <point x="240" y="-148" type="line"/>
      <point x="229" y="-148" type="line"/>
      <point x="229" y="1449" type="line"/>
      <point x="378" y="1598" type="line"/>
      <point x="389" y="1598" type="line"/>
      <point x="389" y="803" type="line"/>
      <point x="3476" y="803" type="line"/>
      <point x="3689" y="1449" type="line"/>
      <point x="3838" y="1598" type="line"/>
      <point x="3848" y="1598" type="line"/>
    </contour>
  </outline>
</glyph>
<glyph name="M" format="2">
  <advance width="4825"/>
  <unicode hex="004D"/>
  <outline>
    <contour>
      <point x="4606" y="1588" type="line"/>
      <point x="4193" y="1588" type="line"/>
      <point x="4057" y="1452" type="line"/>
      <point x="4046" y="1452" type="line"/>
      <point x="4191" y="1606" type="line"/>
      <point x="4189" y="1608" type="line"/>
      <point x="4032" y="1451" type="line"/>
      <point x="4032" y="1451" type="line"/>
      <point x="4032" y="1451" type="line"/>
      <point x="2781" y="129" type="line"/>
      <point x="2758" y="103" type="line"/>
      <point x="2758" y="103" type="line"/>
      <point x="2758" y="103" type="line"/>
      <point x="2743" y="88" type="line"/>
      <point x="2220" y="88" type="line"/>
      <point x="2218" y="91" type="line"/>
      <point x="803" y="1588" type="line"/>
      <point x="390" y="1588" type="line"/>
      <point x="379" y="1577" type="line"/>
      <point x="379" y="1605" type="line"/>
      <point x="225" y="1451" type="line"/>
      <point x="225" y="-152" type="line"/>
      <point x="242" y="-152" type="line"/>
      <point x="396" y="2" type="line"/>
      <point x="379" y="2" type="line"/>
      <point x="379" y="1434" type="line"/>
      <point x="651" y="1434" type="line"/>
      <point x="2068" y="-66" type="line"/>
      <point x="2627" y="-66" type="line"/>
      <point x="2781" y="88" type="line"/>
      <point x="2773" y="88" type="line"/>
      <point x="4045" y="1434" type="line"/>
      <point x="4452" y="1434" type="line"/>
      <point x="4452" y="-152" type="line"/>
      <point x="4469" y="-152" type="line"/>
      <point x="4623" y="2" type="line"/>
      <point x="4606" y="2" type="line"/>
    </contour>
    <contour>
      <point x="375" y="1438" type="line"/>
      <point x="375" y="-2" type="line"/>
      <point x="386" y="-2" type="line"/>
      <point x="240" y="-148" type="line"/>
      <point x="229" y="-148" type="line"/>
      <point x="229" y="1449" type="line"/>
      <point x="375" y="1595" type="line"/>
      <point x="375" y="1567" type="line"/>
      <point x="392" y="1584" type="line"/>
      <point x="801" y="1584" type="line"/>
      <point x="2214" y="89" type="line"/>
      <point x="2218" y="84" type="line"/>
      <point x="2745" y="84" type="line"/>
      <point x="2745" y="85" type="line"/>
      <point x="2760" y="101" type="line"/>
      <point x="2784" y="126" type="line"/>
      <point x="4034" y="1449" type="line"/>
      <point x="4081" y="1495" type="line"/>
      <point x="4036" y="1448" type="line"/>
      <point x="4053" y="1448" type="line"/>
      <point x="4039" y="1434" type="line"/>
      <point x="4039" y="1434" type="line"/>
      <point x="2763" y="84" type="line"/>
      <point x="2771" y="84" type="line"/>
      <point x="2625" y="-62" type="line"/>
      <point x="2070" y="-62" type="line"/>
      <point x="653" y="1438" type="line"/>
    </contour>
    <contour>
      <point x="4602" y="-2" type="line"/>
      <point x="4613" y="-2" type="line"/>
      <point x="4467" y="-148" type="line"/>
      <point x="4456" y="-148" type="line"/>
      <point x="4456" y="1438" type="line"/>
      <point x="4049" y="1438" type="line"/>
      <point x="4195" y="1584" type="line"/>
      <point x="4602" y="1584" type="line"/>
    </contour>
  </outline>
</glyph>
<glyph name="P" format="2">
  <advance width="3740"/>
  <unicode hex="0050"/>
  <outline>
    <contour>
      <point x="242" y="-152" type="line"/>
      <point x="393" y="-1" type="line"/>
      <point x="393" y="500" type="line"/>
      <point x="3586" y="500" type="line"/>
      <point x="3737" y="651" type="line"/>
      <point x="3737" y="1602" type="line"/>
      <point x="376" y="1602" type="line"/>
      <point x="225" y="1451" type="line"/>
      <point x="225" y="-152" type="line"/>
    </contour>
    <contour>
      <point x="389" y="504" type="line"/>
      <point x="389" y="1" type="line"/>
      <point x="240" y="-148" type="line"/>
      <point x="229" y="-148" type="line"/>
      <point x="229" y="1449" type="line"/>
      <point x="378" y="1598" type="line"/>
      <point x="3733" y="1598" type="line"/>
      <point x="3733" y="653" type="line"/>
      <point x="3584" y="504" type="line"/>
    </contour>
    <contour>
      <point x="3572" y="664" type="line"/>
      <point x="3572" y="1438" type="line"/>
      <point x="389" y="1438" type="line"/>
      <point x="389" y="664" type="line"/>
    </contour>
    <contour>
      <point x="393" y="668" type="line"/>
      <point x="393" y="1434" type="line"/>
      <point x="3568" y="1434" type="line"/>
      <point x="3568" y="668" type="line"/>
    </contour>
  </outline>
</glyph>
<glyph name="S" format="2">
  <advance width="3665"/>
  <unicode hex="0053"/>
  <outline>
    <contour>
      <point x="3651" y="1602" type="line"/>
      <point x="655" y="1602" type="line"/>
      <point x="505" y="1451" type="line"/>
      <point x="505" y="1451" type="line"/>
      <point x="505" y="1451" type="line"/>
      <point x="23" y="966" type="line"/>
      <point x="23" y="658" type="line"/>
      <point x="3494" y="658" type="line"/>
      <point x="3494" y="334" type="line"/>
      <point x="3172" y="15" type="line"/>
      <point x="192" y="15" type="line"/>
      <point x="192" y="481" type="line"/>
      <point x="176" y="481" type="line"/>
      <point x="25" y="330" type="line"/>
      <point x="25" y="-152" type="line"/>
      <point x="3031" y="-152" type="line"/>
      <point x="3511" y="326" type="line"/>
      <point x="3511" y="326" type="line"/>
      <point x="3511" y="326" type="line"/>
      <point x="3662" y="476" type="line"/>
      <point x="3662" y="824" type="line"/>
      <point x="191" y="824" type="line"/>
      <point x="191" y="1110" type="line"/>
      <point x="515" y="1435" type="line"/>
      <point x="3483" y="1435" type="line"/>
      <point x="3483" y="1006" type="line"/>
      <point x="3500" y="1006" type="line"/>
      <point x="3651" y="1157" type="line"/>
    </contour>
    <contour>
      <point x="3498" y="662" type="line"/>
      <point x="27" y="662" type="line"/>
      <point x="27" y="964" type="line"/>
      <point x="507" y="1449" type="line"/>
      <point x="657" y="1598" type="line"/>
      <point x="3647" y="1598" type="line"/>
      <point x="3647" y="1159" type="line"/>
      <point x="3498" y="1010" type="line"/>
      <point x="3487" y="1010" type="line"/>
      <point x="3487" y="1439" type="line"/>
      <point x="513" y="1439" type="line"/>
      <point x="187" y="1112" type="line"/>
      <point x="187" y="820" type="line"/>
      <point x="3658" y="820" type="line"/>
      <point x="3658" y="478" type="line"/>
      <point x="3509" y="328" type="line"/>
      <point x="3029" y="-148" type="line"/>
      <point x="29" y="-148" type="line"/>
      <point x="29" y="328" type="line"/>
      <point x="178" y="477" type="line"/>
      <point x="188" y="477" type="line"/>
      <point x="188" y="11" type="line"/>
      <point x="3174" y="11" type="line"/>
      <point x="3498" y="332" type="line"/>
    </contour>
  </outline>
</glyph>
<glyph name="U" format="2">
  <advance width="4023"/>
  <unicode hex="0055"/>
  <outline>
    <contour>
      <point x="3818" y="-1" type="line"/>
      <point x="3818" y="1602" type="line"/>
      <point x="3801" y="1602" type="line"/>
      <point x="3650" y="1451" type="line"/>
      <point x="3650" y="16" type="line"/>
      <point x="248" y="16" type="line"/>
      <point x="248" y="1602" type="line"/>
      <point x="231" y="1602" type="line"/>
      <point x="80" y="1451" type="line"/>
      <point x="80" y="-152" type="line"/>
      <point x="3667" y="-152" type="line"/>
    </contour>
    <contour>
      <point x="244" y="12" type="line"/>
      <point x="3654" y="12" type="line"/>
      <point x="3654" y="1449" type="line"/>
      <point x="3803" y="1598" type="line"/>
      <point x="3814" y="1598" type="line"/>
      <point x="3814" y="1" type="line"/>
      <point x="3665" y="-148" type="line"/>
      <point x="84" y="-148" type="line"/>
      <point x="84" y="1449" type="line"/>
      <point x="233" y="1598" type="line"/>
      <point x="244" y="1598" type="line"/>
    </contour>
  </outline>
</glyph>
<glyph name="V" format="2">
  <advance width="4024"/>
  <unicode hex="0056"/>
  <outline>
    <contour>
      <point x="225" y="-155" type="line"/>
      <point x="228" y="-152" type="line"/>
      <point x="3333" y="-152" type="line"/>
      <point x="3813" y="326" type="line"/>
      <point x="3813" y="326" type="line"/>
      <point x="3813" y="326" type="line"/>
      <point x="3970" y="483" type="line"/>
      <point x="3968" y="485" type="line"/>
      <point x="3814" y="333" type="line"/>
      <point x="3814" y="345" type="line"/>
      <point x="3950" y="481" type="line"/>
      <point x="3950" y="1605" type="line"/>
      <point x="3796" y="1451" type="line"/>
      <point x="3796" y="333" type="line"/>
      <point x="3462" y="2" type="line"/>
      <point x="379" y="2" type="line"/>
      <point x="379" y="1605" type="line"/>
      <point x="225" y="1451" type="line"/>
      <point x="225" y="-149" type="line"/>
      <point x="222" y="-152" type="line"/>
      <point x="225" y="-152" type="line"/>
    </contour>
    <contour>
      <point x="229" y="1449" type="line"/>
      <point x="375" y="1595" type="line"/>
      <point x="375" y="1" type="line"/>
      <point x="229" y="-145" type="line"/>
    </contour>
    <contour>
      <point x="3810" y="347" type="line"/>
      <point x="3810" y="328" type="line"/>
      <point x="3331" y="-148" type="line"/>
      <point x="232" y="-148" type="line"/>
      <point x="378" y="-2" type="line"/>
      <point x="3464" y="-2" type="line"/>
      <point x="3800" y="331" type="line"/>
      <point x="3800" y="1449" type="line"/>
      <point x="3946" y="1595" type="line"/>
      <point x="3946" y="483" type="line"/>
    </contour>
  </outline>
</glyph>
<glyph name="X" format="2">
  <advance width="3894"/>
  <unicode hex="0058"/>
  <outline>
    <contour>
      <point x="97" y="-152" type="line"/>
      <point x="248" y="-1" type="line"/>
      <point x="248" y="641" type="line"/>
      <point x="3296" y="641" type="line"/>
      <point x="3666" y="365" type="line"/>
      <point x="3666" y="-152" type="line"/>
      <point x="3684" y="-152" type="line"/>
      <point x="3835" y="-1" type="line"/>
      <point x="3835" y="523" type="line"/>
      <point x="3669" y="646" type="line"/>
      <point x="3681" y="646" type="line"/>
      <point x="3832" y="797" type="line"/>
      <point x="3832" y="1602" type="line"/>
      <point x="3814" y="1602" type="line"/>
      <point x="3663" y="1451" type="line"/>
      <point x="3663" y="808" type="line"/>
      <point x="616" y="808" type="line"/>
      <point x="251" y="1068" type="line"/>
      <point x="251" y="1602" type="line"/>
      <point x="234" y="1602" type="line"/>
      <point x="83" y="1451" type="line"/>
      <point x="83" y="910" type="line"/>
      <point x="234" y="803" type="line"/>
      <point x="231" y="803" type="line"/>
      <point x="80" y="652" type="line"/>
      <point x="80" y="-152" type="line"/>
    </contour>
    <contour>
      <point x="3657" y="650" type="line"/>
      <point x="3831" y="521" type="line"/>
      <point x="3831" y="1" type="line"/>
      <point x="3682" y="-148" type="line"/>
      <point x="3670" y="-148" type="line"/>
      <point x="3670" y="367" type="line"/>
      <point x="3298" y="645" type="line"/>
      <point x="244" y="645" type="line"/>
      <point x="244" y="1" type="line"/>
      <point x="95" y="-148" type="line"/>
      <point x="84" y="-148" type="line"/>
      <point x="84" y="650" type="line"/>
      <point x="233" y="799" type="line"/>
      <point x="246" y="799" type="line"/>
      <point x="87" y="912" type="line"/>
      <point x="87" y="1449" type="line"/>
      <point x="236" y="1598" type="line"/>
      <point x="247" y="1598" type="line"/>
      <point x="247" y="1066" type="line"/>
      <point x="614" y="804" type="line"/>
      <point x="3667" y="804" type="line"/>
      <point x="3667" y="1449" type="line"/>
      <point x="3816" y="1598" type="line"/>
      <point x="3828" y="1598" type="line"/>
      <point x="3828" y="799" type="line"/>
      <point x="3679" y="650" type="line"/>
    </contour>
  </outline>
</glyph>
<glyph name="Y" format="2">
  <advance width="4172"/>
  <unicode hex="0059"/>
  <outline>
    <contour>
      <point x="3967" y="-1" type="line"/>
      <point x="3967" y="1602" type="line"/>
      <point x="3949" y="1602" type="line"/>
      <point x="3798" y="1451" type="line"/>
      <point x="3798" y="810" type="line"/>
      <point x="393" y="810" type="line"/>
      <point x="393" y="1602" type="line"/>
      <point x="376" y="1602" type="line"/>
      <point x="225" y="1451" type="line"/>
      <point x="225" y="643" type="line"/>
      <point x="3798" y="643" type="line"/>
      <point x="3798" y="15" type="line"/>
      <point x="396" y="15" type="line"/>
      <point x="396" y="454" type="line"/>
      <point x="379" y="454" type="line"/>
      <point x="228" y="303" type="line"/>
      <point x="228" y="-152" type="line"/>
      <point x="3816" y="-152" type="line"/>
    </contour>
    <contour>
      <point x="389" y="806" type="line"/>
      <point x="3802" y="806" type="line"/>
      <point x="3802" y="1449" type="line"/>
      <point x="3951" y="1598" type="line"/>
      <point x="3963" y="1598" type="line"/>
      <point x="3963" y="1" type="line"/>
      <point x="3814" y="-148" type="line"/>
      <point x="232" y="-148" type="line"/>
      <point x="232" y="301" type="line"/>
      <point x="381" y="450" type="line"/>
      <point x="392" y="450" type="line"/>
      <point x="392" y="11" type="line"/>
      <point x="3802" y="11" type="line"/>
      <point x="3802" y="647" type="line"/>
      <point x="229" y="647" type="line"/>
      <point x="229" y="1449" type="line"/>
      <point x="378" y="1598" type="line"/>
      <point x="389" y="1598" type="line"/>
    </contour>
  </outline>
</glyph>
<glyph name="Z" format="2">
  <advance width="3720"/>
  <unicode hex="005A"/>
  <outline>
    <contour>
      <point x="174" y="431" type="line"/>
      <point x="23" y="280" type="line"/>
      <point x="23" y="-152" type="line"/>
      <point x="3566" y="-152" type="line"/>
      <point x="3717" y="-1" type="line"/>
      <point x="3717" y="566" type="line"/>
      <point x="3700" y="566" type="line"/>
      <point x="3549" y="415" type="line"/>
      <point x="3549" y="15" type="line"/>
      <point x="191" y="15" type="line"/>
      <point x="191" y="304" type="line"/>
      <point x="3560" y="1121" type="line"/>
      <point x="3711" y="1272" type="line"/>
      <point x="3711" y="1602" type="line"/>
      <point x="177" y="1602" type="line"/>
      <point x="26" y="1451" type="line"/>
      <point x="26" y="930" type="line"/>
      <point x="43" y="930" type="line"/>
      <point x="194" y="1081" type="line"/>
      <point x="194" y="1435" type="line"/>
      <point x="3543" y="1435" type="line"/>
      <point x="3543" y="1246" type="line"/>
    </contour>
    <contour>
      <point x="187" y="308" type="line"/>
      <point x="187" y="11" type="line"/>
      <point x="3553" y="11" type="line"/>
      <point x="3553" y="413" type="line"/>
      <point x="3702" y="562" type="line"/>
      <point x="3713" y="562" type="line"/>
      <point x="3713" y="1" type="line"/>
      <point x="3564" y="-148" type="line"/>
      <point x="27" y="-148" type="line"/>
      <point x="27" y="278" type="line"/>
      <point x="176" y="427" type="line"/>
      <point x="3547" y="1242" type="line"/>
      <point x="3547" y="1439" type="line"/>
      <point x="190" y="1439" type="line"/>
      <point x="190" y="1083" type="line"/>
      <point x="41" y="934" type="line"/>
      <point x="30" y="934" type="line"/>
      <point x="30" y="1449" type="line"/>
      <point x="179" y="1598" type="line"/>
      <point x="3707" y="1598" type="line"/>
      <point x="3707" y="1274" type="line"/>
      <point x="3558" y="1125" type="line"/>
    </contour>
  </outline>
</glyph>
<glyph name="C.wide" format="2">
  <advance width="3777"/>
  <outline>
    <contour>
      <point x="3774" y="-1" type="line"/>
      <point x="3774" y="16" type="line"/>
      <point x="358" y="16" type="line"/>
      <point x="358" y="1104" type="line"/>
      <point x="684" y="1434" type="line"/>
      <point x="3622" y="1434" type="line"/>
      <point x="3773" y="1585" type="line"/>
      <point x="3773" y="1602" type="line"/>
      <point x="823" y="1602" type="line"/>
      <point x="673" y="1451" type="line"/>
      <point x="673" y="1451" type="line"/>
      <point x="673" y="1451" type="line"/>
      <point x="190" y="962" type="line"/>
      <point x="190" y="-152" type="line"/>
      <point x="3623" y="-152" type="line"/>
    </contour>
    <contour>
      <point x="354" y="1106" type="line"/>
      <point x="354" y="12" type="line"/>
      <point x="3770" y="12" type="line"/>
      <point x="3770" y="1" type="line"/>
      <point x="3621" y="-148" type="line"/>
      <point x="194" y="-148" type="line"/>
      <point x="194" y="960" type="line"/>
      <point x="675" y="1449" type="line"/>
      <point x="825" y="1598" type="line"/>
      <point x="3769" y="1598" type="line"/>
      <point x="3769" y="1587" type="line"/>
      <point x="3620" y="1438" type="line"/>
      <point x="682" y="1438" type="line"/>
    </contour>
  </outline>
</glyph>
<glyph name="E.wide" format="2">
  <advance width="3839"/>
  <outline>
    <contour>
      <point x="3836" y="-1" type="line"/>
      <point x="3836" y="15" type="line"/>
      <point x="393" y="15" type="line"/>
      <point x="393" y="642" type="line"/>
      <point x="3392" y="642" type="line"/>
      <point x="3543" y="793" type="line"/>
      <point x="3543" y="808" type="line"/>
      <point x="393" y="808" type="line"/>
      <point x="393" y="1435" type="line"/>
      <point x="3684" y="1435" type="line"/>
      <point x="3835" y="1586" type="line"/>
      <point x="3835" y="1602" type="line"/>
      <point x="376" y="1602" type="line"/>
      <point x="225" y="1451" type="line"/>
      <point x="225" y="-152" type="line"/>
      <point x="3685" y="-152" type="line"/>
    </contour>
    <contour>
      <point x="389" y="646" type="line"/>
      <point x="389" y="11" type="line"/>
      <point x="3832" y="11" type="line"/>
      <point x="3832" y="1" type="line"/>
      <point x="3683" y="-148" type="line"/>
      <point x="229" y="-148" type="line"/>
      <point x="229" y="1449" type="line"/>
      <point x="378" y="1598" type="line"/>
      <point x="3831" y="1598" type="line"/>
      <point x="3831" y="1588" type="line"/>
      <point x="3682" y="1439" type="line"/>
      <point x="389" y="1439" type="line"/>
      <point x="389" y="804" type="line"/>
      <point x="3539" y="804" type="line"/>
      <point x="3539" y="795" type="line"/>
      <point x="3390" y="646" type="line"/>
    </contour>
  </outline>
</glyph>
<glyph name="F.wide" format="2">
  <advance width="3914"/>
  <outline>
    <contour>
      <point x="242" y="-152" type="line"/>
      <point x="393" y="-1" type="line"/>
      <point x="393" y="637" type="line"/>
      <point x="3525" y="637" type="line"/>
      <point x="3676" y="788" type="line"/>
      <point x="3676" y="805" type="line"/>
      <point x="393" y="805" type="line"/>
      <point x="393" y="1434" type="line"/>
      <point x="3760" y="1434" type="line"/>
      <point x="3911" y="1585" type="line"/>
      <point x="3911" y="1602" type="line"/>
      <point x="376" y="1602" type="line"/>
      <point x="225" y="1451" type="line"/>
      <point x="225" y="-152" type="line"/>
    </contour>
    <contour>
      <point x="389" y="1438" type="line"/>
      <point x="389" y="801" type="line"/>
      <point x="3672" y="801" type="line"/>
      <point x="3672" y="790" type="line"/>
      <point x="3523" y="641" type="line"/>
      <point x="389" y="641" type="line"/>
      <point x="389" y="1" type="line"/>
      <point x="240" y="-148" type="line"/>
      <point x="229" y="-148" type="line"/>
      <point x="229" y="1449" type="line"/>
      <point x="378" y="1598" type="line"/>
      <point x="3907" y="1598" type="line"/>
      <point x="3907" y="1587" type="line"/>
      <point x="3758" y="1438" type="line"/>
    </contour>
  </outline>
</glyph>
<glyph name="N.wide" format="2">
  <advance width="4258"/>
  <outline>
    <contour>
      <point x="222" y="-152" type="line"/>
      <point x="373" y="-1" type="line"/>
      <point x="373" y="1434" type="line"/>
      <point x="703" y="1434" type="line"/>
      <point x="3316" y="-152" type="line"/>
      <point x="3822" y="-152" type="line"/>
      <point x="3973" y="-1" type="line"/>
      <point x="3973" y="1602" type="line"/>
      <point x="3955" y="1602" type="line"/>
      <point x="3804" y="1451" type="line"/>
      <point x="3804" y="16" type="line"/>
      <point x="3473" y="16" type="line"/>
      <point x="859" y="1602" type="line"/>
      <point x="356" y="1602" type="line"/>
      <point x="205" y="1451" type="line"/>
      <point x="205" y="-152" type="line"/>
    </contour>
    <contour>
      <point x="705" y="1438" type="line"/>
      <point x="369" y="1438" type="line"/>
      <point x="369" y="1" type="line"/>
      <point x="220" y="-148" type="line"/>
      <point x="209" y="-148" type="line"/>
      <point x="209" y="1449" type="line"/>
      <point x="358" y="1598" type="line"/>
      <point x="857" y="1598" type="line"/>
      <point x="3471" y="12" type="line"/>
      <point x="3808" y="12" type="line"/>
      <point x="3808" y="1449" type="line"/>
      <point x="3957" y="1598" type="line"/>
      <point x="3969" y="1598" type="line"/>
      <point x="3969" y="1" type="line"/>
      <point x="3820" y="-148" type="line"/>
      <point x="3318" y="-148" type="line"/>
    </contour>
  </outline>
</glyph>
<glyph name="P.wide" format="2">
  <advance width="3699"/>
  <outline>
    <contour>
      <point x="155" y="-152" type="line"/>
      <point x="306" y="-1" type="line"/>
      <point x="306" y="454" type="line"/>
      <point x="3498" y="454" type="line"/>
      <point x="3649" y="605" type="line"/>
      <point x="3649" y="1602" type="line"/>
      <point x="289" y="1602" type="line"/>
      <point x="138" y="1451" type="line"/>
      <point x="138" y="-152" type="line"/>
    </contour>
    <contour>
      <point x="302" y="458" type="line"/>
      <point x="302" y="1" type="line"/>
      <point x="153" y="-148" type="line"/>
      <point x="142" y="-148" type="line"/>
      <point x="142" y="1449" type="line"/>
      <point x="291" y="1598" type="line"/>
      <point x="3645" y="1598" type="line"/>
      <point x="3645" y="607" type="line"/>
      <point x="3496" y="458" type="line"/>
    </contour>
    <contour>
      <point x="3485" y="618" type="line"/>
      <point x="3485" y="1438" type="line"/>
      <point x="302" y="1438" type="line"/>
      <point x="302" y="618" type="line"/>
    </contour>
    <contour>
      <point x="306" y="622" type="line"/>
      <point x="306" y="1434" type="line"/>
      <point x="3481" y="1434" type="line"/>
      <point x="3481" y="622" type="line"/>
    </contour>
  </outline>
</glyph>
<glyph name="U.alt" format="2">
  <advance width="3994"/>
  <outline>
    <contour>
      <point x="3876" y="-1" type="line"/>
      <point x="3876" y="1602" type="line"/>
      <point x="3859" y="1602" type="line"/>
      <point x="3708" y="1451" type="line"/>
      <point x="3708" y="16" type="line"/>
      <point x="305" y="16" type="line"/>
      <point x="305" y="1602" type="line"/>
      <point x="288" y="1602" type="line"/>
      <point x="137" y="1451" type="line"/>
      <point x="137" y="-152" type="line"/>
      <point x="3725" y="-152" type="line"/>
    </contour>
    <contour>
      <point x="301" y="12" type="line"/>
      <point x="3712" y="12" type="line"/>
      <point x="3712" y="1449" type="line"/>
      <point x="3861" y="1598" type="line"/>
      <point x="3872" y="1598" type="line"/>
      <point x="3872" y="1" type="line"/>
      <point x="3723" y="-148" type="line"/>
      <point x="141" y="-148" type="line"/>
      <point x="141" y="1449" type="line"/>
      <point x="290" y="1598" type="line"/>
      <point x="301" y="1598" type="line"/>
    </contour>
  </outline>
</glyph>
<glyph name="Y.wide" format="2">
  <advance width="4024"/>
  <outline>
    <contour>
      <point x="3839" y="-1" type="line"/>
      <point x="3839" y="1602" type="line"/>
      <point x="3821" y="1602" type="line"/>
      <point x="3670" y="1451" type="line"/>
      <point x="3670" y="809" type="line"/>
      <point x="267" y="809" type="line"/>
      <point x="267" y="1602" type="line"/>
      <point x="250" y="1602" type="line"/>
      <point x="99" y="1451" type="line"/>
      <point x="99" y="642" type="line"/>
      <point x="3670" y="642" type="line"/>
      <point x="3670" y="15" type="line"/>
      <point x="253" y="15" type="line"/>
      <point x="102" y="-136" type="line"/>
      <point x="102" y="-152" type="line"/>
      <point x="3688" y="-152" type="line"/>
    </contour>
    <contour>
      <point x="3674" y="11" type="line"/>
      <point x="3674" y="646" type="line"/>
      <point x="103" y="646" type="line"/>
      <point x="103" y="1449" type="line"/>
      <point x="252" y="1598" type="line"/>
      <point x="263" y="1598" type="line"/>
      <point x="263" y="805" type="line"/>
      <point x="3674" y="805" type="line"/>
      <point x="3674" y="1449" type="line"/>
      <point x="3823" y="1598" type="line"/>
      <point x="3835" y="1598" type="line"/>
      <point x="3835" y="1" type="line"/>
      <point x="3686" y="-148" type="line"/>
      <point x="106" y="-148" type="line"/>
      <point x="106" y="-138" type="line"/>
      <point x="255" y="11" type="line"/>
    </contour>
  </outline>
</glyph>
<glyph name="one.narrow" format="2">
  <advance width="2190"/>
  <outline>
    <contour>
      <point x="1985" y="1602" type="line"/>
      <point x="174" y="1602" type="line"/>
      <point x="23" y="1451" type="line"/>
      <point x="23" y="1434" type="line"/>
      <point x="1816" y="1434" type="line"/>
      <point x="1816" y="-152" type="line"/>
      <point x="1834" y="-152" type="line"/>
      <point x="1985" y="-1" type="line"/>
    </contour>
    <contour>
      <point x="1820" y="1438" type="line"/>
      <point x="27" y="1438" type="line"/>
      <point x="27" y="1449" type="line"/>
      <point x="176" y="1598" type="line"/>
      <point x="1981" y="1598" type="line"/>
      <point x="1981" y="1" type="line"/>
      <point x="1832" y="-148" type="line"/>
      <point x="1820" y="-148" type="line"/>
    </contour>
  </outline>
</glyph>
<glyph name="seven.alt" format="2">
  <advance width="3694"/>
  <outline>
    <contour>
      <point x="3241" y="-152" type="line"/>
      <point x="3258" y="-152" type="line"/>
      <point x="3412" y="2" type="line"/>
      <point x="3395" y="2" type="line"/>
      <point x="3395" y="1588" type="line"/>
      <point x="353" y="1588" type="line"/>
      <point x="342" y="1577" type="line"/>
      <point x="342" y="1605" type="line"/>
      <point x="188" y="1451" type="line"/>
      <point x="188" y="745" type="line"/>
      <point x="204" y="745" type="line"/>
      <point x="358" y="899" type="line"/>
      <point x="342" y="899" type="line"/>
      <point x="342" y="1434" type="line"/>
      <point x="3241" y="1434" type="line"/>
    </contour>
    <contour>
      <point x="338" y="1438" type="line"/>
      <point x="338" y="895" type="line"/>
      <point x="348" y="895" type="line"/>
      <point x="202" y="749" type="line"/>
      <point x="192" y="749" type="line"/>
      <point x="192" y="1449" type="line"/>
      <point x="338" y="1595" type="line"/>
      <point x="338" y="1567" type="line"/>
      <point x="355" y="1584" type="line"/>
      <point x="3391" y="1584" type="line"/>
      <point x="3391" y="-2" type="line"/>
      <point x="3402" y="-2" type="line"/>
      <point x="3256" y="-148" type="line"/>
      <point x="3245" y="-148" type="line"/>
      <point x="3245" y="1438" type="line"/>
    </contour>
  </outline>
</glyph>
<glyph name="six.wide" format="2">
  <advance width="4089"/>
  <outline>
    <contour>
      <point x="3877" y="-1" type="line"/>
      <point x="3877" y="808" type="line"/>
      <point x="358" y="808" type="line"/>
      <point x="358" y="1113" type="line"/>
      <point x="681" y="1435" type="line"/>
      <point x="3725" y="1435" type="line"/>
      <point x="3876" y="1586" type="line"/>
      <point x="3876" y="1602" type="line"/>
      <point x="822" y="1602" type="line"/>
      <point x="341" y="1121" type="line"/>
      <point x="190" y="971" type="line"/>
      <point x="190" y="-152" type="line"/>
      <point x="3726" y="-152" type="line"/>
    </contour>
    <contour>
      <point x="354" y="1115" type="line"/>
      <point x="354" y="804" type="line"/>
      <point x="3873" y="804" type="line"/>
      <point x="3873" y="1" type="line"/>
      <point x="3724" y="-148" type="line"/>
      <point x="194" y="-148" type="line"/>
      <point x="194" y="969" type="line"/>
      <point x="343" y="1119" type="line"/>
      <point x="661" y="1436" type="line"/>
      <point x="824" y="1598" type="line"/>
      <point x="3872" y="1598" type="line"/>
      <point x="3872" y="1588" type="line"/>
      <point x="3723" y="1439" type="line"/>
      <point x="679" y="1439" type="line"/>
    </contour>
    <contour>
      <point x="3713" y="11" type="line"/>
      <point x="3713" y="646" type="line"/>
      <point x="354" y="646" type="line"/>
      <point x="354" y="11" type="line"/>
    </contour>
    <contour>
      <point x="358" y="15" type="line"/>
      <point x="358" y="642" type="line"/>
      <point x="3709" y="642" type="line"/>
      <point x="3709" y="15" type="line"/>
    </contour>
  </outline>
</glyph>
<glyph name="three.wide" format="2">
  <advance width="3972"/>
  <outline>
    <contour>
      <point x="3767" y="-1" type="line"/>
      <point x="3767" y="808" type="line"/>
      <point x="3422" y="808" type="line"/>
      <point x="3422" y="1602" type="line"/>
      <point x="177" y="1602" type="line"/>
      <point x="26" y="1451" type="line"/>
      <point x="26" y="1435" type="line"/>
      <point x="3254" y="1435" type="line"/>
      <point x="3254" y="809" type="line"/>
      <point x="879" y="809" type="line"/>
      <point x="728" y="658" type="line"/>
      <point x="728" y="642" type="line"/>
      <point x="3599" y="642" type="line"/>
      <point x="3599" y="15" type="line"/>
      <point x="174" y="15" type="line"/>
      <point x="23" y="-136" type="line"/>
      <point x="23" y="-152" type="line"/>
      <point x="3616" y="-152" type="line"/>
    </contour>
    <contour>
      <point x="3603" y="11" type="line"/>
      <point x="3603" y="646" type="line"/>
      <point x="732" y="646" type="line"/>
      <point x="732" y="656" type="line"/>
      <point x="881" y="805" type="line"/>
      <point x="3258" y="805" type="line"/>
      <point x="3258" y="1439" type="line"/>
      <point x="30" y="1439" type="line"/>
      <point x="30" y="1449" type="line"/>
      <point x="179" y="1598" type="line"/>
      <point x="3418" y="1598" type="line"/>
      <point x="3418" y="804" type="line"/>
      <point x="3763" y="804" type="line"/>
      <point x="3763" y="1" type="line"/>
      <point x="3614" y="-148" type="line"/>
      <point x="27" y="-148" type="line"/>
      <point x="27" y="-138" type="line"/>
      <point x="176" y="11" type="line"/>
    </contour>
  </outline>
</glyph>
<glyph name="two.wide" format="2">
  <advance width="4097"/>
  <outline>
    <contour>
      <point x="3800" y="1602" type="line"/>
      <point x="458" y="1602" type="line"/>
      <point x="307" y="1451" type="line"/>
      <point x="307" y="1435" type="line"/>
      <point x="3632" y="1435" type="line"/>
      <point x="3632" y="808" type="line"/>
      <point x="455" y="808" type="line"/>
      <point x="304" y="657" type="line"/>
      <point x="304" y="-152" type="line"/>
      <point x="3681" y="-152" type="line"/>
      <point x="3832" y="-1" type="line"/>
      <point x="3832" y="15" type="line"/>
      <point x="472" y="15" type="line"/>
      <point x="472" y="642" type="line"/>
      <point x="3649" y="642" type="line"/>
      <point x="3800" y="793" type="line"/>
    </contour>
    <contour>
      <point x="468" y="646" type="line"/>
      <point x="468" y="11" type="line"/>
      <point x="3828" y="11" type="line"/>
      <point x="3828" y="1" type="line"/>
      <point x="3679" y="-148" type="line"/>
      <point x="308" y="-148" type="line"/>
      <point x="308" y="655" type="line"/>
      <point x="457" y="804" type="line"/>
      <point x="3636" y="804" type="line"/>
      <point x="3636" y="1439" type="line"/>
      <point x="311" y="1439" type="line"/>
      <point x="311" y="1449" type="line"/>
      <point x="460" y="1598" type="line"/>
      <point x="3796" y="1598" type="line"/>
      <point x="3796" y="795" type="line"/>
      <point x="3647" y="646" type="line"/>
    </contour>
  </outline>
</glyph>
